<?xml version="1.0" encoding="UTF-8"?>
<svg width="400px" height="123px" viewBox="0 0 400 123" version="1.1" xmlns="http://www.w3.org/2000/svg" xmlns:xlink="http://www.w3.org/1999/xlink">
    <title>@0,5xES_Orizz_Color</title>
    <g id="ES_Orizz_Color" stroke="none" stroke-width="1" fill="none" fill-rule="evenodd">
        <g id="Group-21" transform="translate(0.000000, 1.000000)">
            <polygon id="Fill-1" fill="#00D9DA" points="0 61.5263551 91.3308411 76.6366355 91.3308411 46.3768224 0 31.1300935"></polygon>
            <polygon id="Fill-2" fill="#FF2751" points="91.3306542 0.869719626 -0.000186915888 15.9781308 -0.000186915888 46.3762617 91.3306542 31.1295327"></polygon>
            <polygon id="Fill-3" fill="#00D9DA" points="0 106.896449 91.3308411 122.143178 91.3308411 91.7469159 0 76.6366355"></polygon>
            <polygon id="Fill-4" fill="#FF2751" points="0 61.4842991 0 91.8824299 91.3308411 76.6357009 91.3308411 46.3758879"></polygon>
            <polygon id="Fill-5" fill="#000000" points="143.698879 17.3297196 143.698879 26.1820561 158.94 26.1820561 158.94 33.8979439 143.698879 33.8979439 143.698879 43.2904673 160.854019 43.2904673 160.854019 51.4829907 132.794206 51.4829907 132.794206 9.19514019 160.854019 9.19514019 160.854019 17.3297196"></polygon>
            <g id="Group-20" transform="translate(131.000000, 7.647290)" fill="#000000">
                <path d="M59.0590654,15.3646729 C59.0590654,11.6581308 56.8684112,9.80205607 52.488972,9.80205607 L46.9431776,9.80205607 L46.9431776,20.8076636 L52.488972,20.8076636 C56.8684112,20.8076636 59.0590654,18.9945794 59.0590654,15.3646729 L59.0590654,15.3646729 Z M46.9431776,29.0039252 L46.9431776,43.8357009 L36.0385047,43.8357009 L36.0385047,1.54785047 L53.7020561,1.54785047 C59.0590654,1.54785047 63.1413084,2.79457944 65.9469159,5.28616822 C68.7525234,7.77962617 70.1562617,11.1385047 70.1562617,15.3646729 C70.1562617,17.9964486 69.5282243,20.3403738 68.2740187,22.3945794 C67.0198131,24.4469159 65.16,26.0637383 62.6927103,27.2394393 C60.2272897,28.413271 57.2291589,29.0039252 53.7020561,29.0039252 L46.9431776,29.0039252 Z" id="Fill-6"></path>
                <polygon id="Fill-8" points="75.5084112 43.8373832 86.4130841 43.8373832 86.4130841 1.54953271 75.5084112 1.54953271"></polygon>
                <path d="M128.787477,5.3764486 C132.550093,8.21009346 134.981869,12.0362617 136.088411,16.8624299 L124.546355,16.8624299 C123.695888,14.9091589 122.389346,13.3708411 120.626729,12.2549533 C118.860374,11.1390654 116.766916,10.5801869 114.342617,10.5801869 C111.155701,10.5801869 108.581869,11.6773832 106.628598,13.8699065 C104.673458,16.0642991 103.694019,18.9951402 103.694019,22.6624299 C103.694019,26.3315888 104.673458,29.251215 106.628598,31.4269159 C108.581869,33.6007477 111.155701,34.6848598 114.342617,34.6848598 C116.766916,34.6848598 118.860374,34.1278505 120.626729,33.0100935 C122.389346,31.8960748 123.695888,30.3783178 124.546355,28.4661682 L136.088411,28.4661682 C134.981869,33.2493458 132.550093,37.0680374 128.787477,39.9185047 C125.02486,42.7708411 120.273458,44.1970093 114.53514,44.1970093 C110.155701,44.1970093 106.310841,43.2885981 102.993084,41.4736449 C99.6771963,39.6605607 97.1164486,37.1166355 95.308972,33.8474766 C93.5014953,30.5783178 92.6005607,26.8493458 92.6005607,22.6624299 C92.6005607,18.475514 93.5014953,14.7484112 95.308972,11.4792523 C97.1164486,8.21009346 99.6771963,5.66616822 102.993084,3.85308411 C106.310841,2.03813084 110.155701,1.13158879 114.53514,1.13158879 C120.273458,1.13158879 125.02486,2.5446729 128.787477,5.3764486" id="Fill-10"></path>
                <path d="M155.125421,13.6616822 C153.020748,15.8336449 151.968411,18.7943925 151.968411,22.5439252 C151.968411,26.2504673 153.020748,29.2018692 155.125421,31.3943925 C157.228224,33.588785 160.067477,34.6841121 163.63757,34.6841121 C167.164673,34.6841121 169.99271,33.588785 172.119813,31.3943925 C174.245047,29.2018692 175.308598,26.2504673 175.308598,22.5439252 C175.308598,18.835514 174.254393,15.8841121 172.14972,13.6915888 C170.045047,11.4990654 167.209533,10.4018692 163.63757,10.4018692 C160.067477,10.4018692 157.228224,11.4878505 155.125421,13.6616822 M175.211402,3.67102804 C178.676822,5.52523364 181.407664,8.09719626 183.405794,11.3869159 C185.403925,14.6785047 186.402056,18.3962617 186.402056,22.5439252 C186.402056,26.6915888 185.39271,30.4186916 183.374019,33.7271028 C181.353458,37.0392523 178.611402,39.6205607 175.14785,41.4747664 C171.68243,43.3271028 167.846916,44.2542056 163.63757,44.2542056 C159.430093,44.2542056 155.59271,43.3271028 152.12729,41.4747664 C148.661869,39.6205607 145.919813,37.0392523 143.901121,33.7271028 C141.88243,30.4186916 140.873084,26.6915888 140.873084,22.5439252 C140.873084,18.3962617 141.88243,14.6785047 143.901121,11.3869159 C145.919813,8.09719626 148.661869,5.52523364 152.12729,3.67102804 C155.59271,1.81682243 159.430093,0.891588785 163.63757,0.891588785 C167.888037,0.891588785 171.74785,1.81682243 175.211402,3.67102804" id="Fill-11"></path>
                <path d="M218.508972,31.5153271 C220.86972,29.4013084 222.049159,26.431215 222.049159,22.6013084 C222.049159,18.7751402 220.86972,15.8050467 218.508972,13.691028 C216.150093,11.5770093 212.845421,10.5209346 208.593084,10.5209346 L203.428598,10.5209346 L203.428598,34.6835514 L208.593084,34.6835514 C212.845421,34.6835514 216.150093,33.6293458 218.508972,31.5153271 M230.241682,33.6386916 C228.351963,36.8499065 225.630467,39.348972 222.080935,41.1433645 C218.531402,42.937757 214.353832,43.8368224 209.550093,43.8368224 L192.523925,43.8368224 L192.523925,1.54897196 L209.550093,1.54897196 C214.396822,1.54897196 218.583738,2.42560748 222.11271,4.18074766 C225.639813,5.93401869 228.351963,8.40878505 230.241682,11.5975701 C232.133271,14.7882243 233.080935,18.4573832 233.080935,22.6013084 C233.080935,26.7508411 232.133271,30.4293458 230.241682,33.6386916" id="Fill-12"></path>
                <polygon id="Fill-13" points="250.16972 9.68242991 250.16972 18.5347664 265.410841 18.5347664 265.410841 26.2506542 250.16972 26.2506542 250.16972 35.6431776 267.32486 35.6431776 267.32486 43.8357009 239.265047 43.8357009 239.265047 1.54785047 267.32486 1.54785047 267.32486 9.68242991"></polygon>
                <path d="M22.0884112,102.11271 C21.3108411,103.505234 20.1276636,104.639813 18.5407477,105.514579 C16.9519626,106.389346 14.9930841,106.82486 12.6603738,106.82486 C10.391215,106.82486 8.37439252,106.413645 6.60990654,105.585607 C4.8435514,104.761308 3.43420561,103.628598 2.38186916,102.185607 C1.32953271,100.744486 0.720186916,99.0996262 0.557570093,97.251028 L5.27345794,97.251028 C5.37065421,98.2248598 5.70149533,99.1725234 6.26971963,100.095888 C6.83607477,101.019252 7.64542056,101.78 8.69962617,102.38 C9.75196262,102.98 11.0229907,103.279065 12.5145794,103.279065 C14.4585047,103.279065 15.9482243,102.761308 16.9856075,101.723925 C18.0211215,100.686542 18.5407477,99.3575701 18.5407477,97.7388785 C18.5407477,96.3463551 18.1762617,95.2117757 17.4472897,94.3370093 C16.7183178,93.462243 15.8192523,92.7743925 14.7500935,92.2697196 C13.6809346,91.7706542 12.2229907,91.226729 10.3743925,90.6435514 C8.20429907,89.9295327 6.46411215,89.2585047 5.15009346,88.626729 C3.83981308,87.9949533 2.72205607,87.0454206 1.79869159,85.7837383 C0.875327103,84.5201869 0.41364486,82.851028 0.41364486,80.7781308 C0.41364486,78.9968224 0.843551402,77.4248598 1.70149533,76.062243 C2.55943925,74.7033645 3.79121495,73.6491589 5.39495327,72.9052336 C6.99869159,72.1613084 8.88654206,71.7856075 11.0566355,71.7856075 C14.4248598,71.7856075 17.097757,72.6061682 19.0753271,74.2416822 C21.051028,75.8771963 22.2024299,77.9594393 22.5239252,80.4865421 L17.7631776,80.4865421 C17.5033645,79.1257944 16.8080374,77.9276636 15.6734579,76.8902804 C14.5388785,75.8528972 13.0005607,75.3351402 11.0566355,75.3351402 C9.2753271,75.3351402 7.84915888,75.7968224 6.78,76.7201869 C5.71084112,77.6435514 5.17626168,78.9463551 5.17626168,80.6323364 C5.17626168,81.9613084 5.52392523,83.0379439 6.2211215,83.8641121 C6.91831776,84.6902804 7.78373832,85.3370093 8.8211215,85.8061682 C9.85663551,86.2771963 11.2828037,86.8042991 13.0958879,87.3874766 C15.2996262,88.0996262 17.0734579,88.78 18.4192523,89.4285981 C19.7631776,90.0771963 20.9052336,91.0566355 21.8454206,92.368785 C22.7837383,93.6809346 23.2547664,95.4229907 23.2547664,97.5930841 C23.2547664,99.2136449 22.8659813,100.720187 22.0884112,102.11271" id="Fill-14"></path>
                <path d="M50.6642991,82.1871028 C52.8979439,84.0020561 54.2773832,86.4319626 54.7951402,89.4768224 L50.1297196,89.4768224 C49.804486,87.5665421 48.9203738,86.0674766 47.4811215,84.9814953 C46.0381308,83.895514 44.2474766,83.3534579 42.111028,83.3534579 C40.5558879,83.3534579 39.1371963,83.7085981 37.8568224,84.4226168 C36.5783178,85.1347664 35.5502804,86.2282243 34.7727103,87.7029907 C33.9951402,89.177757 33.6063551,91.0001869 33.6063551,93.1702804 C33.6063551,95.3403738 33.9951402,97.1646729 34.7727103,98.6375701 C35.5502804,100.112336 36.5783178,101.205794 37.8568224,101.917944 C39.1371963,102.631963 40.5558879,102.987103 42.111028,102.987103 C44.2474766,102.987103 46.0381308,102.435701 47.4811215,101.334766 C48.9203738,100.233832 49.804486,98.7272897 50.1297196,96.8151402 L54.7951402,96.8151402 C54.2773832,99.8936449 52.8979439,102.331028 50.6642991,104.129159 C48.428785,105.92729 45.6100935,106.826355 42.2082243,106.826355 C39.6474766,106.826355 37.3801869,106.276822 35.404486,105.174019 C33.4269159,104.073084 31.8811215,102.493645 30.7633645,100.435701 C29.6456075,98.377757 29.086729,95.9571963 29.086729,93.1702804 C29.086729,90.3852336 29.6456075,87.9553271 30.7633645,85.8805607 C31.8811215,83.8076636 33.4269159,82.2207477 35.404486,81.1179439 C37.3801869,80.0170093 39.6474766,79.4656075 42.2082243,79.4656075 C45.6100935,79.4656075 48.428785,80.3721495 50.6642991,82.1871028" id="Fill-15"></path>
                <path d="M83.371028,82.3568224 C85.2813084,84.3493458 86.2364486,87.2241121 86.2364486,90.9829907 L86.2364486,106.485794 L81.8158879,106.485794 L81.8158879,91.3717757 C81.8158879,88.7157009 81.135514,86.6764486 79.7728972,85.2484112 C78.4140187,83.822243 76.5654206,83.1100935 74.2327103,83.1100935 C71.8046729,83.1100935 69.8588785,83.8951402 68.4009346,85.4671028 C66.9448598,87.0390654 66.2140187,89.3306542 66.2140187,92.3437383 L66.2140187,106.485794 L61.7934579,106.485794 L61.7934579,70.5231776 L66.2140187,70.5231776 L66.2140187,86.1250467 C66.8962617,83.9530841 68.1018692,82.2839252 69.8364486,81.1175701 C71.5691589,79.951215 73.5691589,79.3680374 75.8383178,79.3680374 C78.9485981,79.3680374 81.4588785,80.3661682 83.371028,82.3568224" id="Fill-16"></path>
                <path d="M101.956636,84.4231776 C100.61271,85.1353271 99.526729,86.228785 98.7024299,87.7035514 C97.8743925,89.1783178 97.4631776,91.0007477 97.4631776,93.1708411 C97.4631776,95.3072897 97.8743925,97.1147664 98.7024299,98.5895327 C99.526729,100.06243 100.61271,101.157757 101.956636,101.869907 C103.30243,102.582056 104.76785,102.937196 106.356636,102.937196 C107.941682,102.937196 109.408972,102.582056 110.752897,101.869907 C112.098692,101.157757 113.184673,100.06243 114.008972,98.5895327 C114.837009,97.1147664 115.248224,95.3072897 115.248224,93.1708411 C115.248224,91.0007477 114.837009,89.1783178 114.008972,87.7035514 C113.184673,86.228785 112.098692,85.1353271 110.752897,84.4231776 C109.408972,83.7091589 107.941682,83.3540187 106.356636,83.3540187 C104.76785,83.3540187 103.30243,83.7091589 101.956636,84.4231776 M113.231402,81.1166355 C115.255701,82.2194393 116.844486,83.8082243 117.994019,85.8792523 C119.143551,87.9558879 119.721121,90.3839252 119.721121,93.1708411 C119.721121,95.957757 119.143551,98.3783178 117.994019,100.434393 C116.844486,102.494206 115.255701,104.073645 113.231402,105.174579 C111.207103,106.275514 108.915514,106.825047 106.356636,106.825047 C103.795888,106.825047 101.504299,106.275514 99.48,105.174579 C97.4538318,104.073645 95.8575701,102.494206 94.691215,100.434393 C93.5248598,98.3783178 92.9435514,95.957757 92.9435514,93.1708411 C92.9435514,90.3839252 93.5248598,87.9558879 94.691215,85.8792523 C95.8575701,83.8082243 97.4538318,82.2194393 99.48,81.1166355 C101.504299,80.0175701 103.795888,79.4661682 106.356636,79.4661682 C108.915514,79.4661682 111.207103,80.0175701 113.231402,81.1166355" id="Fill-17"></path>
                <path d="M134.420561,84.4231776 C133.076636,85.1353271 131.990654,86.228785 131.166355,87.7035514 C130.338318,89.1783178 129.927103,91.0007477 129.927103,93.1708411 C129.927103,95.3072897 130.338318,97.1147664 131.166355,98.5895327 C131.990654,100.06243 133.076636,101.157757 134.420561,101.869907 C135.766355,102.582056 137.231776,102.937196 138.820561,102.937196 C140.405607,102.937196 141.872897,102.582056 143.216822,101.869907 C144.562617,101.157757 145.648598,100.06243 146.472897,98.5895327 C147.300935,97.1147664 147.71215,95.3072897 147.71215,93.1708411 C147.71215,91.0007477 147.300935,89.1783178 146.472897,87.7035514 C145.648598,86.228785 144.562617,85.1353271 143.216822,84.4231776 C141.872897,83.7091589 140.405607,83.3540187 138.820561,83.3540187 C137.231776,83.3540187 135.766355,83.7091589 134.420561,84.4231776 M145.695327,81.1166355 C147.719626,82.2194393 149.308411,83.8082243 150.457944,85.8792523 C151.607477,87.9558879 152.185047,90.3839252 152.185047,93.1708411 C152.185047,95.957757 151.607477,98.3783178 150.457944,100.434393 C149.308411,102.494206 147.719626,104.073645 145.695327,105.174579 C143.671028,106.275514 141.379439,106.825047 138.820561,106.825047 C136.259813,106.825047 133.968224,106.275514 131.943925,105.174579 C129.917757,104.073645 128.321495,102.494206 127.15514,100.434393 C125.988785,98.3783178 125.407477,95.957757 125.407477,93.1708411 C125.407477,90.3839252 125.988785,87.9558879 127.15514,85.8792523 C128.321495,83.8082243 129.917757,82.2194393 131.943925,81.1166355 C133.968224,80.0175701 136.259813,79.4661682 138.820561,79.4661682 C141.379439,79.4661682 143.671028,80.0175701 145.695327,81.1166355" id="Fill-18"></path>
                <polygon id="Fill-19" points="159.181308 106.485981 163.601869 106.485981 163.601869 70.5233645 159.181308 70.5233645"></polygon>
            </g>
        </g>
    </g>
</svg>